<?xml version="1.0" standalone="no"?>
<!DOCTYPE svg PUBLIC "-//W3C//DTD SVG 20010904//EN"
 "http://www.w3.org/TR/2001/REC-SVG-20010904/DTD/svg10.dtd">
<svg version="1.0" xmlns="http://www.w3.org/2000/svg"
 width="600.000000pt" height="600.000000pt" viewBox="0 0 600.000000 600.000000"
 preserveAspectRatio="xMidYMid meet">
<metadata>
Created by potrace 1.14, written by Peter Selinger 2001-2017
</metadata>
<g transform="translate(0.000000,600.000000) scale(0.100000,-0.100000)"
fill="#000000" stroke="none">
<path d="M3720 5479 c-57 -12 -137 -20 -270 -24 -69 -3 -138 -7 -155 -11 -28
-6 -53 -9 -101 -12 -12 -1 -44 -22 -70 -45 -44 -39 -52 -43 -79 -35 -264 78
-421 95 -584 63 -32 -6 -146 -15 -253 -20 -48 -2 -96 -9 -106 -14 -11 -6 -32
-36 -48 -67 -16 -31 -33 -58 -39 -60 -5 -1 -50 -6 -100 -9 -49 -4 -101 -8
-115 -10 -14 -2 -33 -4 -42 -4 -13 -1 -18 -9 -18 -28 0 -16 -9 -48 -20 -72
-23 -49 -98 -164 -112 -169 -4 -2 -8 -8 -8 -13 0 -5 -7 -17 -15 -26 -9 -10
-27 -33 -41 -50 -16 -20 -41 -37 -64 -43 -69 -18 -145 -57 -211 -107 -35 -26
-113 -80 -174 -118 -130 -82 -171 -118 -178 -151 -2 -13 4 -64 13 -112 10 -48
15 -91 12 -97 -4 -5 -38 -53 -77 -105 -73 -98 -147 -208 -181 -270 -10 -19
-21 -37 -25 -40 -22 -20 -103 -204 -124 -281 l-12 -46 48 -22 c50 -24 130 -99
311 -293 59 -63 123 -126 143 -139 19 -13 38 -33 42 -44 11 -33 2 -106 -19
-159 -35 -90 -30 -108 66 -256 48 -73 86 -133 84 -135 -2 -1 -25 -17 -53 -35
-101 -68 -264 -217 -359 -329 -91 -108 -235 -351 -285 -481 -12 -30 -26 -64
-31 -75 -18 -38 -79 -225 -73 -225 3 0 1 -6 -5 -12 -5 -7 -13 -28 -17 -46 -7
-34 -33 -94 -112 -262 -57 -120 -144 -312 -147 -325 -2 -5 -6 -19 -10 -30 -30
-79 -36 -96 -36 -103 0 -4 26 17 59 48 60 56 144 107 216 130 22 7 42 13 45
13 3 0 16 4 30 9 33 14 251 18 320 7 30 -5 71 -11 90 -13 19 -3 46 -7 60 -11
32 -7 156 -7 193 0 15 3 39 7 55 10 15 3 70 8 122 10 52 3 103 8 112 11 9 2
25 6 35 9 10 2 54 17 98 35 130 51 188 71 225 76 134 18 227 56 438 177 73 42
134 77 137 77 10 0 188 108 256 156 42 30 81 54 87 54 21 0 153 -70 216 -114
26 -18 136 -30 136 -14 0 4 11 3 24 -2 13 -5 26 -7 28 -5 2 2 28 6 58 8 68 5
110 16 110 28 0 5 3 8 8 7 15 -4 72 34 120 80 48 47 102 135 102 167 0 20 12
19 90 -6 36 -11 118 -34 183 -50 66 -17 136 -41 158 -54 21 -14 41 -25 45 -25
16 0 143 -109 258 -221 l128 -126 112 111 c62 61 147 142 190 181 43 38 92 84
110 101 81 83 144 152 188 208 26 34 51 66 56 71 14 18 69 99 104 155 20 30
60 105 89 167 52 108 56 113 99 129 25 10 49 21 53 25 5 4 15 39 23 79 15 78
49 160 83 200 46 54 82 90 89 90 4 0 15 8 24 18 9 9 46 37 82 62 38 27 71 58
80 78 28 58 16 153 -33 265 l-20 47 62 45 c34 25 67 48 72 52 6 5 43 30 83 57
65 43 86 68 64 78 -4 1 -28 28 -52 58 -25 30 -47 57 -50 60 -17 15 -157 223
-229 340 -148 237 -141 222 -141 303 0 40 -5 89 -11 111 -6 21 -12 46 -15 55
-2 9 -24 77 -50 151 -51 151 -52 160 -14 325 18 83 28 115 50 170 45 112 54
170 29 186 -8 5 -48 20 -89 33 -41 13 -174 60 -295 104 -222 80 -337 118 -387
126 -15 3 -31 7 -35 9 -5 3 -33 8 -63 11 -30 4 -63 8 -72 9 -9 2 -34 25 -55
53 -89 117 -133 152 -201 159 -38 4 -137 -25 -181 -52 -21 -14 -27 -13 -60 5
-83 47 -185 61 -281 41z"/>
</g>
</svg>
